<?xml version="1.0" standalone="no"?>
<!DOCTYPE svg PUBLIC "-//W3C//DTD SVG 20010904//EN"
 "http://www.w3.org/TR/2001/REC-SVG-20010904/DTD/svg10.dtd">
<svg version="1.0" xmlns="http://www.w3.org/2000/svg"
 width="500.000000pt" height="500.000000pt" viewBox="0 0 500.000000 500.000000"
 preserveAspectRatio="xMidYMid meet">

<g transform="translate(0.000000,500.000000) scale(0.100000,-0.100000)"
fill="#000000" stroke="none">
<path d="M4355 4758 c-170 -89 -560 -213 -830 -263 -49 -9 -112 -21 -140 -26
-56 -12 -151 -24 -305 -39 -58 -6 -150 -15 -205 -20 -55 -6 -264 -10 -465 -10
-341 0 -457 5 -750 31 -63 6 -160 15 -215 20 -55 5 -127 13 -160 19 -33 6
-139 21 -235 35 -96 14 -187 28 -202 31 l-28 6 0 -309 0 -309 163 -32 c322
-64 562 -100 897 -134 169 -18 873 -17 1035 0 587 63 1041 184 1408 375 l97
50 0 299 c0 232 -3 298 -12 298 -7 -1 -31 -10 -53 -22z"/>
<path d="M1215 3280 l-70 -5 -6 -60 c-4 -33 -7 -93 -8 -132 -1 -40 -5 -73 -10
-73 -10 0 -16 -43 -27 -175 -6 -74 -9 -82 -41 -112 -44 -42 -81 -43 -121 -4
l-29 30 -7 198 c-3 109 -3 223 2 254 4 30 6 61 4 67 -5 17 -148 16 -159 0 -4
-7 -13 -97 -19 -200 -10 -178 -11 -189 -35 -214 -13 -15 -19 -24 -12 -21 8 5
11 -13 12 -64 0 -57 6 -82 28 -126 33 -65 78 -107 106 -99 11 3 51 -2 89 -11
111 -25 221 3 296 76 23 23 46 41 50 41 19 0 42 73 42 135 0 36 5 96 12 135
11 63 10 71 -5 82 -16 12 -17 24 -7 128 13 145 12 147 -2 151 -7 2 -44 2 -83
-1z"/>
<path d="M2737 3280 c-125 -32 -165 -85 -188 -251 -7 -54 -18 -97 -26 -102
-16 -10 -19 -202 -3 -212 6 -3 10 -19 10 -34 0 -50 46 -121 69 -106 6 3 27 -3
48 -13 61 -31 170 -45 252 -33 86 13 77 14 95 -5 9 -8 16 -11 16 -6 0 6 20 20
45 32 24 12 58 34 75 50 27 25 30 34 30 87 0 80 10 134 23 126 6 -4 1 7 -10
23 -12 16 -23 45 -25 64 -3 34 -4 35 -58 41 -30 3 -85 9 -122 14 -49 6 -68 5
-68 -4 0 -6 -6 -11 -14 -11 -9 0 -15 -17 -19 -52 -6 -61 4 -75 65 -85 37 -5
38 -7 38 -46 0 -55 -19 -66 -108 -67 -69 0 -76 2 -102 30 -26 28 -28 35 -29
132 -1 58 -7 105 -12 109 -17 10 1 116 25 151 11 17 39 38 60 46 33 13 48 14
100 3 33 -7 89 -26 124 -42 36 -16 66 -29 68 -29 2 0 4 29 4 64 0 71 -1 73
-80 105 -63 25 -220 37 -283 21z"/>
<path d="M3427 3280 c-140 -36 -183 -107 -194 -321 -4 -88 -11 -135 -20 -144
-25 -26 -14 -109 26 -194 25 -53 143 -128 161 -102 3 4 48 8 100 7 208 -1 298
66 329 245 15 88 14 331 -1 382 -15 51 -62 99 -114 115 -50 17 -237 24 -287
12z m193 -146 c15 -10 35 -32 44 -51 19 -40 21 -147 5 -242 -23 -132 -57 -171
-146 -171 -108 0 -129 34 -126 205 2 117 15 196 37 224 38 49 132 66 186 35z"/>
<path d="M4090 3281 c-147 -32 -218 -157 -158 -279 25 -53 70 -87 216 -162
113 -59 138 -86 126 -134 -6 -26 -56 -56 -93 -56 -34 0 -129 28 -188 55 -70
32 -83 24 -83 -51 0 -64 11 -74 115 -106 195 -61 369 0 412 144 18 61 16 86
-11 144 -31 67 -81 102 -236 166 -82 34 -110 58 -110 93 0 14 10 35 21 46 20
20 29 21 103 16 47 -3 103 -14 133 -25 60 -24 63 -21 63 58 0 52 -7 61 -60 79
-44 15 -203 23 -250 12z"/>
<path d="M1412 3267 c-6 -7 -16 -71 -22 -142 -7 -72 -17 -133 -23 -137 -7 -4
-13 -76 -17 -205 -5 -184 -4 -201 15 -238 l20 -40 180 3 c142 3 182 7 188 18
4 8 19 14 33 14 24 0 25 2 22 63 l-3 62 -50 3 c-27 2 -54 7 -60 12 -5 4 -36 8
-68 9 -32 0 -62 3 -67 6 -5 3 -7 42 -4 86 3 52 1 85 -6 94 -8 10 -8 39 -1 109
6 52 11 140 11 196 l0 100 -69 0 c-43 0 -72 -5 -79 -13z"/>
<path d="M2159 3267 c-8 -6 -25 -39 -38 -72 -13 -33 -27 -69 -31 -80 -5 -11
-32 -83 -61 -160 -46 -126 -85 -228 -139 -367 -18 -46 -18 -46 3 -52 28 -7 96
-7 124 0 15 4 27 22 40 56 l18 50 50 -6 c27 -3 76 -6 107 -6 53 0 57 -2 72
-32 9 -17 16 -41 16 -54 0 -15 8 -25 22 -30 33 -10 169 -10 176 0 9 15 3 79
-8 90 -5 5 -10 25 -10 43 0 18 -4 33 -10 33 -5 0 -10 17 -10 38 0 21 -4 42
-10 48 -5 5 -10 28 -12 51 -2 22 -7 39 -12 36 -5 -3 -7 8 -4 24 3 25 1 29 -13
26 -14 -4 -20 4 -28 34 -31 117 -74 282 -80 308 -7 29 -8 30 -76 32 -44 2 -76
-2 -86 -10z m69 -299 c15 -20 44 -132 40 -159 -3 -22 -8 -24 -70 -27 -38 -2
-68 1 -68 5 0 16 74 193 80 193 4 0 12 -6 18 -12z"/>
<path d="M1431 2331 c-9 -14 -30 -68 -47 -120 -18 -52 -36 -97 -42 -99 -5 -1
-20 28 -32 65 -33 101 -61 163 -74 164 -83 4 -220 -1 -228 -9 -8 -8 -7 -24 1
-54 11 -39 10 -411 -1 -528 l-3 -35 97 -3 c89 -2 97 -1 103 17 3 11 1 30 -6
42 -15 30 -25 234 -11 243 10 6 54 -93 67 -154 12 -59 33 -90 59 -90 33 0 38
10 80 138 21 61 42 112 47 112 15 0 11 -193 -5 -237 -23 -66 -12 -73 110 -73
81 0 106 3 110 14 3 8 1 48 -6 89 -10 70 -6 132 9 123 3 -2 5 66 3 152 -2 104
1 170 9 194 19 59 6 66 -118 70 -103 3 -106 2 -122 -21z"/>
<path d="M1753 2345 c-27 -19 -34 -47 -17 -70 19 -26 20 -340 2 -329 -10 6
-10 4 -2 -7 17 -23 20 -75 12 -189 l-3 -35 55 -1 55 -1 -50 6 c-43 5 -49 9
-46 26 9 41 12 527 3 538 -4 7 -8 19 -8 27 1 13 30 15 191 17 105 2 199 1 210
-2 15 -3 21 -13 23 -38 1 -18 6 -48 11 -65 6 -20 6 -34 0 -38 -6 -3 -48 0 -93
6 -124 19 -148 8 -137 -64 l4 -28 96 3 96 4 3 -67 c2 -50 -1 -68 -10 -69 -7
-1 -53 0 -101 1 l-88 2 3 -48 3 -49 70 0 c78 1 135 8 152 18 19 12 24 -9 14
-55 -15 -67 -22 -112 -16 -106 3 3 14 40 24 82 16 69 17 79 3 92 -8 8 -21 13
-29 9 -23 -8 -103 -19 -152 -19 -41 -1 -44 1 -48 28 l-4 29 90 -6 c103 -8 119
0 115 54 -2 19 -4 57 -5 85 l-2 50 -46 -7 c-25 -4 -69 -8 -97 -8 -50 -1 -52 0
-56 29 -5 35 0 36 130 16 75 -11 84 -10 98 5 12 13 14 26 8 51 -4 18 -8 44 -9
58 0 14 -4 31 -8 38 -5 6 -6 16 -3 21 3 4 -82 6 -188 3 -127 -3 -200 -1 -213
6 -15 8 -25 8 -40 -3z"/>
<path d="M2355 2350 c-79 -5 -80 -6 -83 -33 -2 -17 -8 -25 -15 -21 -7 4 -2 -3
11 -15 22 -22 23 -27 20 -182 -2 -87 0 -159 4 -159 4 0 9 -35 11 -77 2 -43 3
32 2 167 -1 135 -5 257 -10 273 l-7 27 116 0 115 0 14 -27 c8 -16 24 -58 37
-95 13 -37 25 -66 28 -64 4 4 -36 120 -58 168 -13 28 -42 44 -60 33 -5 -3 -18
-2 -27 2 -10 4 -54 6 -98 3z"/>
<path d="M2727 2342 c-18 -4 -44 -57 -77 -155 -16 -50 -26 -67 -37 -63 -8 3
-11 1 -8 -5 14 -22 31 2 70 102 l41 104 109 0 c105 0 110 -1 106 -20 -3 -11
-5 -114 -6 -230 l-1 -210 6 210 c4 116 10 220 14 231 5 14 3 24 -4 29 -11 7
-183 13 -213 7z"/>
<path d="M3035 2337 c-14 -11 -16 -20 -10 -43 14 -51 17 -443 4 -507 -7 -34
-8 -62 -3 -67 5 -4 109 -10 231 -12 l222 -3 5 25 c3 14 10 55 17 92 15 79 4
104 -40 93 -43 -11 -104 -19 -150 -19 -41 -1 -44 1 -48 28 l-4 29 90 -6 c66
-4 92 -2 100 7 13 15 18 147 7 165 -6 9 -32 10 -102 5 l-94 -7 0 27 c0 35 13
39 95 26 39 -6 80 -13 92 -15 12 -2 29 5 38 14 13 15 14 26 4 70 -6 29 -9 61
-6 72 3 10 2 17 -3 14 -4 -3 -10 2 -14 10 -8 21 -402 22 -431 2z"/>
<path d="M3659 2323 c-61 -32 -85 -66 -105 -151 -26 -111 22 -189 144 -232 45
-17 62 -27 60 -39 -5 -26 -46 -24 -106 5 -31 16 -63 27 -71 26 -8 -2 -10 1 -6
10 4 7 -4 1 -19 -13 -25 -24 -26 -28 -17 -70 5 -24 11 -69 13 -100 l3 -55 75
-4 c206 -9 243 -6 293 23 71 42 101 101 102 198 0 43 -3 77 -7 76 -3 -1 -21
15 -40 35 -23 27 -55 46 -108 66 -65 24 -75 31 -75 52 0 21 6 26 31 28 17 2
55 -6 83 -17 77 -29 84 -23 76 68 -10 113 -5 107 -92 115 -139 11 -175 8 -234
-21z m264 3 c34 -3 41 -10 43 -44 0 -15 4 -48 7 -74 7 -54 4 -57 -61 -34 -22
8 -62 16 -88 17 -41 3 -49 1 -48 -14 1 -9 2 -26 3 -37 0 -12 12 -25 29 -31 15
-6 35 -16 46 -21 10 -5 27 -11 37 -13 11 -2 33 -13 49 -25 97 -69 79 -248 -31
-310 -46 -26 -85 -29 -261 -19 -38 2 -68 4 -69 4 0 0 -3 23 -5 50 -3 28 -9 67
-14 88 -11 51 9 58 71 25 33 -17 62 -25 96 -24 48 1 48 1 48 35 0 33 -3 36
-69 63 -120 49 -160 118 -131 226 19 75 56 116 130 144 17 6 119 3 218 -6z"/>
<path d="M2468 2024 c-5 -4 -8 -63 -8 -130 0 -68 3 -125 8 -127 4 -3 6 50 4
116 l-2 122 25 -45 c30 -56 31 -42 2 23 -12 27 -25 45 -29 41z"/>
<path d="M2713 2018 c-12 -20 -52 -132 -48 -136 2 -2 14 25 27 60 l23 63 6
-40 c6 -39 6 -39 8 13 1 54 -2 61 -16 40z"/>
<path d="M2530 1873 c0 -14 29 -83 35 -83 3 0 -3 19 -12 43 -18 47 -23 55 -23
40z"/>
<path d="M2637 1828 c-9 -23 -15 -44 -12 -46 4 -5 15 19 29 66 12 38 0 24 -17
-20z"/>
<path d="M2920 1809 c0 -13 5 -31 10 -39 7 -11 8 -5 4 20 -8 43 -14 51 -14 19z"/>
<path d="M2714 1781 c-18 -65 -8 -71 109 -71 100 0 127 8 127 35 0 5 -5 2 -11
-7 -8 -15 -26 -18 -115 -18 l-106 0 7 50 c8 60 3 65 -11 11z"/>
<path d="M2578 1773 c6 -2 18 -2 25 0 6 3 1 5 -13 5 -14 0 -19 -2 -12 -5z"/>
<path d="M2435 1720 l-40 -7 37 -2 c20 0 40 4 43 9 3 6 5 9 3 9 -2 -1 -21 -5
-43 -9z"/>
<path d="M2118 1713 c12 -2 30 -2 40 0 9 3 -1 5 -23 4 -22 0 -30 -2 -17 -4z"/>
<path d="M1730 1361 c0 -5 44 -17 98 -26 53 -10 102 -22 107 -27 7 -7 0 -8
-20 -5 -16 3 -64 11 -105 18 -41 6 -82 16 -90 23 -13 9 -13 9 -2 -6 7 -9 27
-20 43 -23 17 -4 33 -14 36 -22 4 -10 14 -13 33 -9 20 4 33 -1 46 -16 19 -20
19 -20 -21 -15 -22 3 -49 9 -59 13 -14 5 -17 4 -12 -4 4 -7 13 -12 20 -12 8 0
13 -7 12 -16 0 -9 6 -19 14 -22 13 -5 13 -3 0 13 -14 17 -13 18 4 12 10 -4 60
-15 111 -24 91 -16 133 -13 120 8 -4 6 -13 8 -21 5 -8 -3 -14 1 -14 9 0 7 -9
17 -20 20 -16 5 -19 12 -14 27 5 18 3 20 -15 15 -14 -3 -21 0 -21 9 0 20 -26
31 -119 48 -96 18 -111 19 -111 7z m175 -81 c3 -5 2 -10 -4 -10 -5 0 -13 5
-16 10 -3 6 -2 10 4 10 5 0 13 -4 16 -10z m85 -40 c12 -8 10 -10 -10 -10 -14
0 -32 5 -40 10 -12 8 -10 10 10 10 14 0 32 -5 40 -10z"/>
<path d="M2748 1272 c-6 -21 25 -42 62 -42 14 0 18 -5 13 -16 -5 -13 1 -15 28
-12 25 2 34 -1 37 -14 3 -14 -2 -15 -35 -8 -42 10 -60 5 -19 -6 14 -3 23 -11
19 -17 -3 -5 -1 -7 5 -3 5 3 42 -1 82 -9 39 -8 82 -15 96 -15 33 0 30 20 -3
21 -16 0 -22 3 -15 6 17 6 -4 33 -25 33 -9 0 -13 6 -9 15 4 10 -1 15 -15 15
-11 0 -18 4 -14 9 8 14 -28 31 -88 41 -29 5 -66 12 -83 15 -26 6 -32 3 -36
-13z m137 -27 l50 -14 -63 6 c-35 3 -76 9 -90 13 -49 15 47 10 103 -5z m32
-57 c-3 -8 -6 -5 -6 6 -1 11 2 17 5 13 3 -3 4 -12 1 -19z m83 -24 c0 -2 -11
-4 -25 -4 -14 0 -25 4 -25 9 0 4 11 6 25 3 14 -2 25 -6 25 -8z"/>
<path d="M1453 1268 c1 -9 -16 -15 -48 -19 -27 -3 -44 -7 -37 -7 10 -2 7 -11
-9 -33 -12 -17 -22 -44 -21 -60 0 -19 -4 -29 -14 -29 -12 0 -12 -3 -2 -20 7
-11 18 -20 25 -20 6 0 17 -16 24 -35 19 -51 79 -84 79 -44 0 6 7 17 15 25 13
14 13 18 0 37 -8 12 -15 32 -15 45 0 19 4 23 20 19 25 -6 24 -7 49 81 l20 72
-45 0 c-30 0 -43 -4 -41 -12z"/>
<path d="M1393 1263 c9 -2 25 -2 35 0 9 3 1 5 -18 5 -19 0 -27 -2 -17 -5z"/>
<path d="M2462 1222 c-13 -2 -19 -8 -16 -14 5 -7 -9 -9 -44 -6 -34 3 -58 0
-71 -8 -16 -12 -21 -11 -31 1 -7 8 -19 15 -26 15 -12 0 -12 -3 0 -22 21 -35
26 -71 13 -89 -13 -17 -79 -49 -103 -49 -7 0 -25 -5 -41 -11 -64 -26 -209 -17
-358 22 -22 6 -48 10 -58 10 -9 0 -15 4 -12 10 4 5 0 9 -9 9 -8 0 -16 -6 -18
-12 -3 -8 -17 -1 -37 20 -18 18 -36 30 -41 27 -8 -5 -24 23 -22 36 1 4 -7 14
-17 23 -17 16 -20 13 -45 -44 -24 -53 -26 -65 -17 -93 9 -25 9 -29 -1 -19 -21
21 -26 14 -37 -49 -12 -70 -12 -70 48 -134 37 -40 45 -45 53 -31 7 12 14 14
25 7 13 -7 22 -3 36 15 28 36 53 17 67 -49 l11 -53 79 -18 c66 -15 127 -18
341 -18 234 0 262 1 279 17 15 13 17 22 10 36 -13 24 -13 59 1 59 7 0 9 -10 5
-25 -4 -14 -2 -25 3 -25 12 0 21 26 21 63 0 30 29 98 51 122 11 11 3 -37 -17
-108 l-13 -48 43 -45 c48 -49 60 -53 76 -24 6 11 20 20 30 20 11 0 20 5 20 11
0 5 13 24 28 40 37 40 58 31 66 -29 11 -75 14 -77 166 -92 131 -12 432 -16
449 -5 5 3 7 14 4 25 -4 16 0 20 22 20 15 0 38 -9 52 -20 32 -25 66 -26 84 -2
13 15 12 16 -3 4 -12 -10 -18 -10 -24 -1 -4 7 -3 9 4 5 6 -3 13 -2 17 4 4 6
10 8 15 5 5 -3 21 13 35 35 14 23 33 44 42 47 21 8 43 -23 43 -62 0 -42 17
-60 70 -73 94 -23 432 -33 482 -13 25 9 26 13 23 62 -2 28 -7 54 -10 57 -3 3
2 13 10 22 14 16 11 21 -41 64 -31 25 -60 46 -64 46 -4 0 -6 12 -4 26 2 20 0
24 -9 15 -6 -6 -24 -11 -40 -11 -15 0 -37 -5 -48 -10 -19 -11 -33 -8 -144 23
-22 6 -55 19 -73 29 -30 17 -35 17 -63 2 -17 -9 -28 -11 -25 -5 4 6 2 11 -3
11 -6 0 -11 10 -11 23 0 16 -23 39 -87 87 -47 36 -90 66 -93 68 -4 2 -15 -5
-25 -14 -14 -15 -18 -15 -26 -3 -5 8 -9 9 -9 3 0 -8 -11 -9 -32 -5 -18 4 -55
3 -81 -2 -34 -6 -53 -5 -63 4 -22 18 -27 4 -10 -30 34 -65 12 -98 -79 -121
-86 -21 -112 -22 -162 -11 -73 17 -149 39 -138 41 6 1 0 5 -13 11 -15 6 -30 5
-43 -2 -24 -13 -49 4 -49 32 0 11 -22 35 -53 58 -30 21 -67 52 -83 68 -16 16
-43 33 -59 37 -22 5 -26 4 -15 -4 13 -9 13 -10 0 -9 -8 0 -31 5 -50 12 -19 7
-45 11 -58 9z m41 -23 c-8 -8 -16 -8 -30 0 -16 9 -14 10 12 11 21 0 26 -3 18
-11z m35 -168 c3 -16 -1 -22 -10 -19 -7 3 -15 15 -16 27 -3 16 1 22 10 19 7
-3 15 -15 16 -27z m-768 11 c0 -18 -29 -46 -49 -47 -15 -1 -21 4 -21 20 0 12
3 25 7 28 9 10 63 9 63 -1z m1680 -68 c0 -8 -4 -12 -10 -9 -5 3 -10 13 -10 21
0 8 5 12 10 9 6 -3 10 -13 10 -21z m-1740 -39 c0 -8 -4 -15 -9 -15 -5 0 -11 7
-15 15 -3 9 0 15 9 15 8 0 15 -7 15 -15z m1696 -77 c-8 -29 -22 -62 -30 -73
-15 -20 -15 -20 -16 2 0 23 51 136 58 128 2 -2 -3 -27 -12 -57z m808 -57 c3
-5 -7 -17 -22 -26 -27 -18 -27 -18 -9 2 9 11 14 23 10 26 -3 4 -1 7 5 7 6 0
13 -4 16 -9z"/>
<path d="M3642 1207 c-9 -10 -1 -13 34 -15 25 -1 53 -6 62 -12 13 -8 4 -9 -33
-5 -37 5 -46 4 -35 -4 8 -6 23 -11 33 -11 20 0 22 -11 5 -28 -16 -16 -2 -15
25 2 20 13 25 13 47 -6 l25 -20 -38 6 c-34 5 -37 4 -28 -13 18 -32 57 -50 157
-71 112 -23 114 -23 114 -10 0 6 -7 10 -15 10 -7 0 -19 8 -24 18 -9 14 -12 14
-20 4 -7 -12 -22 -11 -87 3 -44 10 -88 24 -99 31 -25 18 -19 17 52 -1 31 -8
73 -15 93 -15 l35 0 -30 24 c-16 14 -38 32 -47 40 -10 9 -25 16 -33 16 -9 0
-12 6 -9 15 4 8 4 15 1 15 -3 0 -32 6 -64 14 -105 26 -110 26 -121 13z m168
-43 c0 -2 -11 -4 -25 -4 -14 0 -25 4 -25 9 0 4 11 6 25 3 14 -2 25 -6 25 -8z
m65 -64 c25 -11 -1 -11 -35 0 -20 6 -21 8 -5 8 11 0 29 -3 40 -8z"/>
<path d="M1842 1194 c10 -9 226 -53 266 -54 17 0 32 5 32 10 0 6 -11 10 -25
10 -16 0 -25 6 -25 15 0 8 -4 15 -10 15 -5 0 -9 -3 -9 -7 3 -20 -4 -21 -41 -8
-42 15 -199 31 -188 19z"/>
<path d="M1923 1126 c2 -6 33 -16 68 -23 35 -6 78 -14 94 -17 86 -17 115 -18
115 -7 0 6 -7 11 -16 11 -9 0 -24 10 -34 23 -10 12 -22 18 -26 14 -5 -4 -2
-12 6 -17 21 -13 10 -12 -108 9 -70 13 -102 15 -99 7z"/>
<path d="M2870 1134 c0 -10 48 -25 140 -44 101 -21 158 -23 115 -5 -11 5 -26
16 -32 24 -9 11 -15 13 -20 5 -10 -13 -93 -6 -93 8 0 6 -6 8 -13 5 -7 -3 -32
-2 -55 3 -23 4 -42 6 -42 4z"/>
<path d="M2950 1062 c0 -9 118 -37 204 -48 36 -5 47 -4 42 4 -4 7 -14 12 -22
12 -8 0 -14 7 -14 15 0 18 -17 20 -22 3 -3 -9 -26 -7 -89 5 -97 20 -99 20 -99
9z"/>
<path d="M3852 1004 c10 -10 211 -55 227 -51 12 3 9 7 -10 15 -15 6 -29 17
-32 24 -5 11 -7 11 -15 -1 -8 -11 -21 -11 -80 3 -75 17 -99 20 -90 10z"/>
<path d="M1586 775 c4 -8 8 -15 10 -15 2 0 4 7 4 15 0 8 -4 15 -10 15 -5 0 -7
-7 -4 -15z"/>
<path d="M1640 640 c0 -5 -9 -10 -20 -10 -11 0 -20 -5 -20 -11 0 -7 7 -8 18
-3 9 4 45 10 80 12 79 5 81 22 2 22 -33 0 -60 -4 -60 -10z"/>
<path d="M1920 624 c0 -14 8 -16 53 -10 28 4 57 7 64 8 19 2 4 18 -18 18 -10
0 -19 -4 -19 -8 0 -5 -7 -9 -15 -9 -8 0 -15 4 -15 9 0 4 -11 8 -25 8 -16 0
-25 -6 -25 -16z"/>
<path d="M2108 623 c17 -2 47 -2 65 0 17 2 3 4 -33 4 -36 0 -50 -2 -32 -4z"/>
<path d="M1680 610 c0 -12 17 -12 45 0 17 7 15 9 -12 9 -18 1 -33 -3 -33 -9z"/>
<path d="M1803 613 c9 -2 23 -2 30 0 6 3 -1 5 -18 5 -16 0 -22 -2 -12 -5z"/>
<path d="M2405 615 c23 -8 83 -10 79 -3 -3 4 -24 8 -47 7 -23 0 -37 -2 -32 -4z"/>
<path d="M2506 612 c-6 -11 40 -9 50 1 4 4 -4 7 -19 7 -14 0 -28 -4 -31 -8z"/>
<path d="M2648 613 c7 -3 16 -2 19 1 4 3 -2 6 -13 5 -11 0 -14 -3 -6 -6z"/>
<path d="M2043 603 c9 -2 23 -2 30 0 6 3 -1 5 -18 5 -16 0 -22 -2 -12 -5z"/>
<path d="M2258 603 c12 -2 32 -2 45 0 12 2 2 4 -23 4 -25 0 -35 -2 -22 -4z"/>
<path d="M2720 594 c0 -10 15 -14 59 -14 33 0 63 5 66 10 3 6 -4 10 -17 11
-13 0 -42 2 -65 4 -32 2 -43 -1 -43 -11z"/>
<path d="M2918 602 c-70 -6 -39 -22 42 -22 44 0 80 4 80 9 0 10 -67 17 -122
13z"/>
<path d="M1720 590 c-8 -5 -36 -10 -61 -10 -58 0 -88 -27 -71 -62 10 -22 11
-21 11 10 1 25 5 32 21 32 11 0 20 -4 20 -10 0 -5 18 -10 40 -10 22 0 40 -4
40 -10 0 -5 9 -10 20 -10 17 0 20 7 20 40 0 41 -11 49 -40 30z"/>
<path d="M3200 576 c0 -18 78 -25 212 -19 78 4 103 9 95 17 -7 7 -69 12 -159
14 -120 2 -148 0 -148 -12z"/>
<path d="M4416 577 c3 -10 9 -15 12 -12 3 3 0 11 -7 18 -10 9 -11 8 -5 -6z"/>
<path d="M3050 570 c0 -5 16 -10 36 -10 19 0 33 4 30 8 -7 12 -66 14 -66 2z"/>
<path d="M4406 547 c3 -10 9 -15 12 -12 3 3 0 11 -7 18 -10 9 -11 8 -5 -6z"/>
<path d="M3680 530 c0 -5 5 -10 11 -10 5 0 7 5 4 10 -3 6 -8 10 -11 10 -2 0
-4 -4 -4 -10z"/>
<path d="M3488 523 c6 -2 18 -2 25 0 6 3 1 5 -13 5 -14 0 -19 -2 -12 -5z"/>
<path d="M1547 433 c-4 -3 -7 -16 -7 -29 0 -12 -6 -25 -12 -28 -10 -5 -10 -7
0 -12 13 -6 17 -44 4 -44 -16 0 -34 -52 -22 -64 7 -7 10 -6 10 2 0 18 46 62
65 62 8 0 15 9 15 20 0 14 -7 20 -21 20 -19 0 -21 4 -16 40 5 37 -1 49 -16 33z"/>
<path d="M2560 269 c0 -5 5 -7 10 -4 6 3 10 8 10 11 0 2 -4 4 -10 4 -5 0 -10
-5 -10 -11z"/>
<path d="M3480 265 c0 -8 2 -15 4 -15 2 0 6 7 10 15 3 8 1 15 -4 15 -6 0 -10
-7 -10 -15z"/>
<path d="M4293 252 c-1 -22 0 -24 9 -8 6 10 6 22 2 26 -5 5 -10 -3 -11 -18z"/>
<path d="M3466 215 c-3 -8 -1 -15 4 -15 6 0 10 7 10 15 0 8 -2 15 -4 15 -2 0
-6 -7 -10 -15z"/>
<path d="M1471 213 c0 -5 4 -17 9 -28 8 -18 9 -17 9 8 1 15 -3 27 -9 27 -5 0
-10 -3 -9 -7z"/>
<path d="M2480 189 c0 -5 5 -7 10 -4 6 3 10 8 10 11 0 2 -4 4 -10 4 -5 0 -10
-5 -10 -11z"/>
<path d="M3400 80 c0 -22 5 -40 10 -40 6 0 10 18 10 40 0 22 -4 40 -10 40 -5
0 -10 -18 -10 -40z"/>
<path d="M1426 74 c-4 -15 -2 -32 3 -37 8 -8 11 0 11 26 0 44 -5 47 -14 11z"/>
<path d="M4196 43 c-6 -14 -5 -15 5 -6 7 7 10 15 7 18 -3 3 -9 -2 -12 -12z"/>
</g>
</svg>
